<svg width="20" height="20" viewBox="0 0 20 20" fill="none" xmlns="http://www.w3.org/2000/svg">
<g clip-path="url(#clip0_183_81)">
<path d="M18.3412 9.99461H16.2737C15.9093 9.99383 15.5547 10.1123 15.2642 10.3319C14.9736 10.5515 14.763 10.8601 14.6646 11.2106L12.7055 18.1735C12.6928 18.2168 12.6665 18.2548 12.6304 18.2818C12.5943 18.3088 12.5505 18.3235 12.5054 18.3235C12.4603 18.3235 12.4164 18.3088 12.3803 18.2818C12.3442 18.2548 12.3179 18.2168 12.3053 18.1735L7.70329 1.81569C7.69067 1.77244 7.66434 1.73445 7.62826 1.70742C7.59218 1.68038 7.5483 1.66577 7.50321 1.66577C7.45811 1.66577 7.41423 1.68038 7.37815 1.70742C7.34208 1.73445 7.31575 1.77244 7.30312 1.81569L5.34394 8.7786C5.24596 9.12771 5.03663 9.43534 4.74774 9.65481C4.45885 9.87427 4.10618 9.99357 3.74325 9.99461H1.66736" stroke="white" stroke-width="1.66577" stroke-linecap="round" stroke-linejoin="round"/>
</g>
<defs>
<clipPath id="clip0_183_81">
<rect width="20.0086" height="19.9892" fill="white"/>
</clipPath>
</defs>
</svg>
