<svg width="16" height="16" viewBox="0 0 16 16" fill="none" xmlns="http://www.w3.org/2000/svg">
<g clip-path="url(#clip0_187_1814)">
<path d="M13.326 6.6631C13.326 9.98997 9.63528 13.4548 8.39595 14.5249C8.28049 14.6117 8.13995 14.6586 7.9955 14.6586C7.85104 14.6586 7.7105 14.6117 7.59505 14.5249C6.35571 13.4548 2.66504 9.98997 2.66504 6.6631C2.66504 5.24937 3.22664 3.89355 4.22629 2.8939C5.22595 1.89424 6.58177 1.33264 7.9955 1.33264C9.40922 1.33264 10.765 1.89424 11.7647 2.8939C12.7644 3.89355 13.326 5.24937 13.326 6.6631Z" stroke="#3AB54A" stroke-width="1.33261" stroke-linecap="round" stroke-linejoin="round"/>
<path d="M7.9955 8.66203C9.09948 8.66203 9.99442 7.76708 9.99442 6.66311C9.99442 5.55913 9.09948 4.66418 7.9955 4.66418C6.89153 4.66418 5.99658 5.55913 5.99658 6.66311C5.99658 7.76708 6.89153 8.66203 7.9955 8.66203Z" stroke="#3AB54A" stroke-width="1.33261" stroke-linecap="round" stroke-linejoin="round"/>
</g>
<defs>
<clipPath id="clip0_187_1814">
<rect width="15.9914" height="15.9914" fill="white"/>
</clipPath>
</defs>
</svg>
